<?xml version="1.0" encoding="UTF-8" standalone="no"?>
<!-- Created with Inkscape (http://www.inkscape.org/) -->

<svg
   width="210mm"
   height="297mm"
   viewBox="0 0 210 297"
   version="1.1"
   id="svg1"
   xml:space="preserve"
   inkscape:version="1.3.2 (091e20e, 2023-11-25)"
   sodipodi:docname="aardvark.svg"
   xmlns:inkscape="http://www.inkscape.org/namespaces/inkscape"
   xmlns:sodipodi="http://sodipodi.sourceforge.net/DTD/sodipodi-0.dtd"
   xmlns="http://www.w3.org/2000/svg"
   xmlns:svg="http://www.w3.org/2000/svg"><sodipodi:namedview
     id="namedview1"
     pagecolor="#ffffff"
     bordercolor="#000000"
     borderopacity="0.25"
     inkscape:showpageshadow="2"
     inkscape:pageopacity="0.0"
     inkscape:pagecheckerboard="0"
     inkscape:deskcolor="#d1d1d1"
     inkscape:document-units="mm"
     inkscape:zoom="1.2200453"
     inkscape:cx="404.49318"
     inkscape:cy="333.59417"
     inkscape:window-width="1632"
     inkscape:window-height="921"
     inkscape:window-x="41"
     inkscape:window-y="25"
     inkscape:window-maximized="0"
     inkscape:current-layer="layer1" /><defs
     id="defs1" /><g
     inkscape:label="Layer 1"
     inkscape:groupmode="layer"
     id="layer1"><path
       style="fill:#000000"
       d="m 105.94971,127.91192 c -1.91792,-0.59573 -3.18266,-2.6124 -5.12647,-8.17433 -1.597059,-4.56973 -2.885646,-6.70691 -6.474399,-10.73806 -5.35932,-6.01998 -7.817278,-11.070909 -8.485567,-17.437248 -0.305028,-2.905799 2.587773,-9.530408 5.056307,-11.57911 0.326532,-0.270998 0.302979,-0.487599 -0.168934,-1.553534 -3.158001,-7.133139 3.031326,-20.999391 8.269795,-18.527229 2.591458,1.222971 4.405728,7.084816 3.021358,9.761888 -1.05436,2.038915 -0.62785,10.337021 0.52688,10.250831 1.39513,-0.104133 1.48793,-0.586067 1.30008,-6.751244 -0.30089,-9.874726 0.98056,-13.832251 4.4789,-13.832251 0.79141,0 3.01076,2.410768 3.33452,3.622121 2.12573,7.953412 1.86921,18.18412 -0.49962,19.925795 -1.46695,1.078573 -2.42861,6.135714 -1.64363,8.643523 1.50677,4.81376 1.51083,4.854764 1.43839,14.501278 -0.0738,9.82819 -0.0838,9.74388 1.56478,13.14727 2.21924,4.58136 -1.99479,10.16838 -6.59239,8.7403 z m 3.39969,-1.64071 c 0.117,-0.21828 0.36774,-0.75406 0.5572,-1.19062 0.20488,-0.47209 0.75248,-0.99305 1.35129,-1.28555 1.25711,-0.61406 1.35884,-1.98302 0.17076,-2.29795 -3.28095,-0.8697 -8.11639,2.38211 -6.63525,4.46218 0.78586,1.10364 4.01322,1.32462 4.556,0.31194 z m -2.86863,-0.18972 c -0.60861,-0.21891 -0.37788,-1.58687 0.36641,-2.17232 0.83357,-0.65569 1.23878,-0.68809 1.69723,-0.13569 0.74476,0.89738 -0.893,2.72908 -2.06364,2.30801 z m 0.071,-4.98651 c 1.40679,-0.82443 4.15954,-1.17708 5.13077,-0.65729 0.53395,0.28576 0.56782,0.26927 0.34055,-0.16572 -2.07281,-3.96738 -2.14154,-4.42645 -2.11231,-14.10909 0.0272,-9.024637 -0.18187,-11.04719 -1.5403,-14.89738 -0.47798,-1.354724 -0.5818,-4.767304 -0.16049,-5.274955 1.22628,-1.477577 0.49132,-4.157502 -2.55723,-9.324505 -1.09026,-1.847884 -1.09026,-1.847884 -1.09431,1.455208 -0.004,3.177776 -0.32226,4.835039 -0.67927,3.535977 -0.337,-1.22629 -2.44235,-0.718623 -2.64781,0.638473 -0.43489,2.872503 -0.76879,0.855437 -0.69565,-4.202384 0.0932,-6.447626 -1.460093,-4.560126 -3.115516,3.785783 -0.624394,3.147916 -1.622288,3.26446 -4.102496,0.479131 -1.874918,-2.105573 -1.813697,-2.111837 -3.21346,0.328764 -5.068024,8.836516 -3.678021,15.121949 5.695173,25.752918 3.234608,3.66866 4.524389,5.9586 6.225469,11.053 1.51751,4.54464 1.33203,4.29735 2.4127,3.21669 0.49906,-0.49907 1.45044,-1.22564 2.11418,-1.61462 z m -7.027471,-18.48857 c -1.982997,-1.30114 -3.393013,-4.298011 -2.231844,-4.743593 1.416868,-0.543704 3.035205,0.565863 3.564215,2.443703 0.86151,3.05812 0.57553,3.55176 -1.332371,2.29989 z m -4.04496,-22.174257 c -0.08765,-2.536274 -0.16595,-2.867243 -1.208545,-5.10847 -0.981063,-2.108953 -1.10512,-2.585136 -1.033955,-3.96875 0.111679,-2.171279 0.838072,-2.260602 0.951882,-0.11705 0.05619,1.05838 0.369426,2.048415 1.148655,3.630556 0.589265,1.196441 1.138514,2.675788 1.220554,3.287437 0.149162,1.11209 0.149162,1.11209 0.498973,-0.323264 0.192396,-0.789445 1.260049,-3.212066 2.372562,-5.383603 4.299215,-8.39172 -0.626443,-16.391297 -5.388798,-8.751751 -4.091932,6.564086 -4.059145,13.184898 0.08794,17.758389 0.644153,0.710386 1.171702,1.380907 1.172331,1.490048 6.28e-4,0.10914 0.06211,0.198437 0.136632,0.198437 0.07452,0 0.09332,-1.22039 0.04177,-2.711979 z m 15.581711,-0.859895 c 1.16033,-2.486155 1.3575,-6.111933 0.51075,-9.392708 -0.20656,-0.800365 -0.63027,-2.76476 -0.94157,-4.365323 -0.7308,-3.757493 -1.04006,-4.365927 -2.21917,-4.365927 -3.58416,0 -4.61289,10.69097 -1.4616,15.189573 0.55198,0.787983 1.39793,2.283779 1.87988,3.323992 0.99189,2.140824 1.05592,2.129645 2.23171,-0.389607 z"
       id="path1" /><path
       style="fill:#d1c0aa;fill-opacity:1;stroke-width:0.509535"
       d="m 390.92363,465.33256 c -0.28809,-0.3503 -2.1822,-5.45202 -4.20913,-11.33714 -7.94508,-23.0683 -11.30421,-29.0865 -25.42017,-45.54263 -12.26753,-14.30128 -19.87169,-25.00093 -24.4259,-34.36917 -5.07338,-10.43619 -6.83152,-17.27696 -6.83152,-26.58096 0,-9.7696 1.94475,-17.11025 7.55944,-28.53394 4.44676,-9.0474 7.01886,-12.99313 8.4698,-12.99313 0.78202,0 2.97366,1.88778 7.01905,6.04591 6.26965,6.44437 8.31079,7.70627 10.88312,6.72828 2.00481,-0.76223 3.26114,-3.81573 5.21178,-12.66722 3.30399,-14.99262 6.38178,-24.3258 8.22323,-24.93636 1.55506,-0.51559 1.90441,2.15432 2.24883,17.18637 0.18943,8.2672 0.51259,15.67181 0.71814,16.45468 0.48464,1.8458 1.37042,1.52025 1.88772,-0.69377 1.12598,-4.8192 1.51142,-5.63987 3.10535,-6.61175 3.15196,-1.92187 6.28879,-1.08047 7.20719,1.93322 0.19215,0.63055 0.56888,1.14645 0.83718,1.14645 1.14129,0 1.62129,-3.41989 1.85945,-13.2479 0.13921,-5.74501 0.4182,-10.75231 0.61999,-11.12734 0.86318,-1.60428 10.5223,16.09511 13.28694,24.34701 2.02863,6.05506 2.06111,9.97568 0.10963,13.23136 -1.355,2.26056 -1.39913,2.56459 -1.33779,9.2164 0.0681,7.38812 0.16051,7.92767 2.87869,16.81464 3.65047,11.93503 4.41489,21.52272 4.43397,55.61268 0.0168,30.08812 0.483,33.91517 5.37876,44.15798 2.4592,5.1451 2.63289,5.71748 1.62344,5.35011 -0.62172,-0.22626 -3.65259,-0.38999 -6.73527,-0.36384 -8.63905,0.0733 -13.57045,2.15471 -20.66333,8.72147 -1.60131,1.48253 -3.02472,2.69551 -3.16313,2.69551 -0.13842,0 -0.48737,-0.28661 -0.77546,-0.63692 z m -8.25627,-75.54671 c 1.39035,-1.67527 -0.85886,-11.54772 -3.5451,-15.56046 -2.35865,-3.52339 -4.65374,-4.81273 -8.56689,-4.81273 -3.94854,0 -4.91509,0.86251 -4.57129,4.07928 0.53602,5.01534 5.67297,11.96424 11.29639,15.28094 3.33394,1.96636 4.42532,2.17159 5.38689,1.01297 z"
       id="path2"
       transform="scale(0.26458333)" /><path
       style="fill:#d1c0aa;fill-opacity:1;stroke-width:0.509535"
       d="m 359.90112,312.57827 c -0.32708,-0.68891 -1.87025,-2.69505 -3.42928,-4.45809 -3.60903,-4.08129 -5.4396,-6.75219 -7.65979,-11.17608 -8.07063,-16.08128 -5.18834,-37.5974 7.63435,-56.98994 8.99761,-13.60762 19.00032,-13.90135 23.75214,-0.69748 1.04672,2.90854 1.17625,4.15121 1.13873,10.92486 -0.0374,6.75922 -0.20149,8.1733 -1.41874,12.22883 -0.75703,2.5222 -2.65513,7.3373 -4.218,10.70023 -6.5435,14.08 -8.43104,18.45123 -9.33634,21.62146 -0.64495,2.2585 -0.96719,2.87819 -0.99162,1.90698 -0.0523,-2.07803 -2.20579,-8.20733 -5.14117,-14.63267 -2.53211,-5.54262 -4.04209,-10.55422 -4.06196,-13.48158 -0.0164,-2.41425 -1.00088,-5.35012 -1.79408,-5.35012 -1.4348,0 -2.01612,2.195 -2.02419,7.64302 -0.008,5.08262 0.0902,5.5794 1.95476,9.93593 5.22533,12.20894 5.40262,12.74124 5.95473,17.87786 0.2986,2.77816 0.47366,7.33454 0.38903,10.12528 -0.13077,4.3117 -0.24324,4.88588 -0.74857,3.82151 z"
       id="path3"
       transform="scale(0.26458333)" /><path
       style="fill:#d1c0aa;fill-opacity:1;stroke-width:0.509535"
       d="m 414.38235,307.38966 c -0.28876,-0.35737 -1.84173,-3.28661 -3.45105,-6.50942 -1.60933,-3.22281 -4.03206,-7.5855 -5.38385,-9.69489 -3.30946,-5.16417 -4.83884,-8.63839 -6.42536,-14.59619 -1.19669,-4.49389 -1.33833,-5.97345 -1.38181,-14.43356 -0.0378,-7.36023 0.15599,-10.37571 0.88424,-13.75743 2.1318,-9.89929 6.29776,-15.79558 11.16019,-15.79558 3.94412,0 5.34805,2.77289 7.99736,15.79558 0.82668,4.06353 2.3606,11.17154 3.40871,15.79557 1.7893,7.894 1.90498,8.92065 1.89461,16.81465 -0.0128,9.74607 -0.79796,13.54915 -4.33836,21.01391 -2.36154,4.9792 -3.52364,6.40827 -4.36468,5.36736 z"
       id="path4"
       transform="scale(0.26458333)" /><path
       style="fill:#d1c0aa;fill-opacity:1;stroke-width:0.509535"
       d=""
       id="path5"
       transform="scale(0.26458333)" /><path
       style="fill:#d1c0aa;fill-opacity:1;stroke-width:0.509535"
       d="m 400.12542,478.37483 c -3.84382,-1.3611 -5.55054,-4.56672 -4.25109,-7.98453 1.34063,-3.52613 7.33638,-8.11795 13.185,-10.09768 4.71718,-1.59674 11.12182,-1.66108 13.17934,-0.1324 2.72071,2.02142 1.99171,5.14298 -1.71914,7.36132 -3.20472,1.91579 -4.75687,3.63643 -6.26398,6.94397 -1.00688,2.20973 -1.89555,3.38487 -2.98625,3.94889 -1.98508,1.02653 -8.19544,1.00447 -11.14388,-0.0396 z m 7.88503,-3.06109 c 1.92048,-1.44267 3.18405,-3.63349 3.18405,-5.5206 0,-1.54222 -2.06937,-3.82366 -3.46823,-3.82366 -1.40149,0 -4.22333,2.04713 -5.56388,4.03637 -1.13919,1.69044 -1.54023,4.79521 -0.76863,5.95054 1.03421,1.54853 4.0956,1.25119 6.61669,-0.64265 z"
       id="path6"
       transform="scale(0.26458333)" /><path
       style="fill:#cc977e;fill-opacity:1;stroke-width:0.509535"
       d="m 399.6701,477.73273 c -2.55425,-1.15993 -3.76164,-2.77224 -3.76164,-5.02321 0,-2.36052 1.09085,-4.22919 3.93181,-6.73536 4.97139,-4.38553 12.06867,-6.93318 18.11032,-6.50091 3.84283,0.27496 5.47274,1.2568 5.47274,3.29673 0,1.9301 -0.8019,2.98209 -3.96397,5.20015 -2.83412,1.98802 -3.64562,2.99396 -5.99041,7.42574 -0.59309,1.12098 -1.63409,2.32138 -2.31332,2.66755 -1.95634,0.99706 -9.00886,0.79401 -11.48553,-0.33069 z m 7.60303,-1.73207 c 2.4612,-1.48991 3.91372,-3.6854 3.91801,-5.92206 0.004,-2.13047 -1.67802,-4.10912 -3.49329,-4.10912 -1.62594,0 -4.17253,1.73327 -5.59354,3.80709 -1.22832,1.79263 -1.51445,5.76584 -0.48906,6.79123 0.96833,0.96833 3.54871,0.70968 5.65788,-0.56714 z"
       id="path8"
       transform="scale(0.26458333)" /><path
       style="fill:#000000;fill-opacity:1;fill-rule:nonzero;stroke-width:0.264583;paint-order:fill markers stroke"
       d="m 113.57117,75.898893 0.85461,1.247272"
       id="path13" /><path
       style="fill:#000000;fill-opacity:1;fill-rule:nonzero;stroke-width:0.264583;paint-order:fill markers stroke"
       d="m 114.91083,76.014381 -0.80842,0.577442"
       id="path14" /><path
       style="fill:#000000;fill-opacity:1;fill-rule:nonzero;stroke-width:0.264583;paint-order:fill markers stroke"
       d="m 114.91083,78.462732 0.64674,2.633133"
       id="path15" /></g></svg>
